<?xml version="1.0" encoding="utf-8"?>
<!-- Generator: Adobe Illustrator 28.2.0, SVG Export Plug-In . SVG Version: 6.00 Build 0)  -->
<svg version="1.1" xmlns="http://www.w3.org/2000/svg" xmlns:xlink="http://www.w3.org/1999/xlink" x="0px" y="0px"
	 viewBox="0 0 1500 1500" style="enable-background:new 0 0 1500 1500;" xml:space="preserve">
<style type="text/css">
	.st0{fill:none;stroke:#328946;stroke-width:70;stroke-linecap:round;stroke-miterlimit:10;}
	.st1{fill:none;stroke:#328946;stroke-width:100;stroke-linecap:round;stroke-miterlimit:10;}
	.st2{fill:#328946;}
</style>
<g id="Layer_1">
	<g>
		<line class="st0" x1="4678.1" y1="1108.3" x2="5178.1" y2="1108.3"/>
		<line class="st0" x1="4928.1" y1="858.3" x2="4928.1" y2="1358.3"/>
	</g>
	<g>
		<line class="st1" x1="4486.1" y1="563.4" x2="4986.1" y2="563.4"/>
		<line class="st1" x1="4736.1" y1="313.4" x2="4736.1" y2="813.4"/>
	</g>
	<g>
		<path class="st2" d="M4509.2,2094.7l-431.4-736.3l-148.2,252.9h162.2c27.6,0,50,22.4,50,50s-22.4,50-50,50h-200v200
			c0,27.6-22.4,50-50,50s-50-22.4-50-50v-64.9l-145.5,248.3c-139.6,238.3-59.6,544.7,178.7,684.1c76.5,45,163.9,68.5,252.7,68.5
			c132.8,0.5,260-52.3,353.5-146.2C4592,2540.2,4624.1,2291.1,4509.2,2094.7z M4432.4,2349.9c-25.4,125.7-115.4,228.4-236.7,270.3
			c-27.8,9.9-58.4-4.7-68.3-32.5s4.7-58.4,32.5-68.3l0.9-0.5c85.2-29.4,148.6-102,166.5-190.3c6.4-29,34.9-47.1,63.8-40.7
			C4419.4,2294.1,4437.6,2321.7,4432.4,2349.9z"/>
		<path class="st2" d="M3891.8,1611.2v-200c0-27.6-22.4-50-50-50s-50,22.4-50,50v200h-200c-27.6,0-50,22.4-50,50s22.4,50,50,50h200
			v135.1l137.8-235.1H3891.8z"/>
	</g>
	<path class="st2" d="M1148,742.5L750.1,63.3L642.2,247.4v-53.7c0-30.7-25-55.7-55.8-55.7c-30.8,0-55.8,25-55.8,55.7v107.6H422.9
		c-30.7,0-55.8,25-55.8,55.7c0,30.7,25,55.7,55.8,55.7h107.8v25L352.1,742.5c-128.8,219.8-54.9,502.4,164.9,631
		c70.6,41.5,151.2,63.2,233.1,63.2h1.6c121.9,0,238.6-48.6,324.4-134.9C1224.4,1153.5,1254,923.7,1148,742.5z M422.9,389.7
		c-18.1,0-32.7-14.6-32.7-32.7c0-18,14.6-32.7,32.7-32.7h130.8V193.7c0-18,14.6-32.7,32.7-32.7c18.1,0,32.7,14.6,32.7,32.7v93v37.7
		H750c18.1,0,32.7,14.6,32.7,32.7c0,18-14.6,32.7-32.7,32.7H619.2v130.7c0,18-14.6,32.7-32.7,32.7c-18.1,0-32.7-14.6-32.7-32.7v-122
		v-8.7H422.9z M1077.2,978c-23.5,116-106.4,210.7-218.3,249.4c-25.6,9.1-53.9-4.3-63-30c-9.1-25.6,4.3-53.9,30-63l0.9-0.4
		c78.6-27.1,137.1-94,153.6-175.5c5.9-26.7,32.1-43.4,58.9-37.6C1065.2,926.5,1082,951.9,1077.2,978z"/>
</g>
<g id="Layer_2">
</g>
</svg>
