<svg width="416" height="144" viewBox="0 0 416 144" fill="none" xmlns="http://www.w3.org/2000/svg">
<path fill-rule="evenodd" clip-rule="evenodd" d="M172.5 77.7012C164.9 16.0671 152.333 0.658569 147 0.658569H211.5C226.915 2.47641 234.867 43.9168 238.058 75.4842C238.09 75.7995 238.121 76.114 238.152 76.4273C238.801 83.0021 239.242 89.1214 239.5 94.3291C245 121.659 252.833 137.562 258 143.659H207.5C185.5 140.998 178 123.705 177 115.391L172.5 77.7012Z" fill="url(#paint0_linear_1_94)"/>
<path fill-rule="evenodd" clip-rule="evenodd" d="M238.152 76.4273C238.121 76.114 238.09 75.7995 238.058 75.4842C247.704 65.7291 266.705 38.9028 275 26.709C283 10.7462 293.333 2.69087 297.5 0.658569C311.1 7.30973 319.167 55.1612 321.5 78.2555C309.9 103.086 289.333 125.183 280.5 133.128C274.1 140.222 262.833 143.104 258 143.659C252.833 137.562 245 121.659 239.5 94.3291C239.242 89.1214 238.801 83.0021 238.152 76.4273Z" fill="url(#paint1_linear_1_94)"/>
<path fill-rule="evenodd" clip-rule="evenodd" d="M321.5 78.2555C319.167 55.1612 311.1 7.30973 297.5 0.658569L361 1.21283C364.5 1.21283 369.6 5.31438 374 21.7206C377.667 38.9028 379.5 77.7012 385.5 97.1004C389.03 108.515 395.831 118.77 402.265 127.019C407.792 134.104 403.406 143.659 394.419 143.659H356C346.667 143.289 327.6 136.121 326 110.403L321.5 78.2555Z" fill="url(#paint2_linear_1_94)"/>
<path d="M126.5 25.0462C90.5 90.2276 62.3333 113.334 36 125.159C26.8624 129.854 30.2018 143.659 40.4753 143.659H114C135.2 137.451 161.833 97.1004 172.5 77.7012C164.9 16.0671 152.333 0.658569 147 0.658569C138.6 5.9795 129.833 19.134 126.5 25.0462Z" fill="url(#paint3_linear_1_94)"/>
<defs>
<linearGradient id="paint0_linear_1_94" x1="275.25" y1="0.658569" x2="275.25" y2="143.659" gradientUnits="userSpaceOnUse">
<stop stop-color="#B985F4"/>
<stop offset="1" stop-color="#EBD6FD"/>
</linearGradient>
<linearGradient id="paint1_linear_1_94" x1="281.5" y1="0.658569" x2="281.5" y2="143.659" gradientUnits="userSpaceOnUse">
<stop offset="0.355769" stop-color="#431A9E"/>
<stop offset="0.668269" stop-color="#7635DC"/>
</linearGradient>
<linearGradient id="paint2_linear_1_94" x1="275.25" y1="0.658569" x2="275.25" y2="143.659" gradientUnits="userSpaceOnUse">
<stop stop-color="#B985F4"/>
<stop offset="1" stop-color="#EBD6FD"/>
</linearGradient>
<linearGradient id="paint3_linear_1_94" x1="86.25" y1="0.658569" x2="86.25" y2="143.659" gradientUnits="userSpaceOnUse">
<stop offset="0.355769" stop-color="#431A9E"/>
<stop offset="0.668269" stop-color="#7635DC"/>
</linearGradient>
</defs>
</svg>
