<svg width="359" height="144" viewBox="0 0 359 144" fill="none" xmlns="http://www.w3.org/2000/svg">
<path fill-rule="evenodd" clip-rule="evenodd" d="M114.53 77.0426C106.93 15.4085 94.3631 0 89.0298 0H153.53C168.945 1.81784 176.897 43.2582 180.088 74.8256C180.12 75.141 180.151 75.4554 180.182 75.7688C180.831 82.3435 181.272 88.4628 181.53 93.6705C187.03 121 194.863 136.903 200.03 143H149.53C127.53 140.34 120.03 123.047 119.03 114.733L114.53 77.0426Z" fill="url(#paint0_linear_1_86)"/>
<path fill-rule="evenodd" clip-rule="evenodd" d="M180.182 75.7688C180.151 75.4554 180.12 75.141 180.088 74.8256C189.734 65.0705 208.735 38.2442 217.03 26.0504C225.03 10.0876 235.363 2.0323 239.53 0C253.13 6.65116 261.196 54.5026 263.53 77.5969C251.93 102.428 231.363 124.525 222.53 132.469C216.13 139.564 204.863 142.446 200.03 143C194.863 136.903 187.03 121 181.53 93.6705C181.272 88.4628 180.831 82.3435 180.182 75.7688Z" fill="url(#paint1_linear_1_86)"/>
<path fill-rule="evenodd" clip-rule="evenodd" d="M263.53 77.5969C261.196 54.5026 253.13 6.65116 239.53 0L303.03 0.554264C306.53 0.554264 311.63 4.65581 316.03 21.062C319.696 38.2442 321.53 77.0426 327.53 96.4419C329.004 101.208 331.048 105.771 333.397 110.071C341.623 125.126 333.986 143 316.83 143H298.03C288.696 142.63 269.63 135.462 268.03 109.744L263.53 77.5969Z" fill="url(#paint2_linear_1_86)"/>
<path d="M68.5298 24.3876C35.6921 83.8433 23.2392 85.2645 6.88484 101.373C3.57898 104.629 1.25703 108.833 0.550855 113.419C-4.97791 149.324 32.446 146.102 53.0298 139.5C74.2298 133.292 103.863 96.4419 114.53 77.0426C106.93 15.4085 94.3631 0 89.0298 0C80.6298 5.32093 71.8631 18.4755 68.5298 24.3876Z" fill="url(#paint3_linear_1_86)"/>
<defs>
<linearGradient id="paint0_linear_1_86" x1="217.28" y1="0" x2="217.28" y2="143" gradientUnits="userSpaceOnUse">
<stop stop-color="#68CDF9"/>
<stop offset="1" stop-color="#CCF4FE"/>
</linearGradient>
<linearGradient id="paint1_linear_1_86" x1="223.53" y1="0" x2="223.53" y2="143" gradientUnits="userSpaceOnUse">
<stop offset="0.355769" stop-color="#0351AB"/>
<stop offset="0.668269" stop-color="#078DEE"/>
</linearGradient>
<linearGradient id="paint2_linear_1_86" x1="217.28" y1="0" x2="217.28" y2="143" gradientUnits="userSpaceOnUse">
<stop stop-color="#68CDF9"/>
<stop offset="1" stop-color="#CCF4FE"/>
</linearGradient>
<linearGradient id="paint3_linear_1_86" x1="57.2649" y1="0" x2="57.2649" y2="143.659" gradientUnits="userSpaceOnUse">
<stop offset="0.355769" stop-color="#0351AB"/>
<stop offset="0.668269" stop-color="#078DEE"/>
</linearGradient>
</defs>
</svg>
