<svg width="417" height="143" viewBox="0 0 417 143" fill="none" xmlns="http://www.w3.org/2000/svg">
<path fill-rule="evenodd" clip-rule="evenodd" d="M172.53 77.0426C164.93 15.4085 152.363 0 147.03 0H211.53C226.945 1.81784 234.897 43.2582 238.088 74.8256C238.12 75.141 238.151 75.4554 238.182 75.7688C238.831 82.3435 239.272 88.4628 239.53 93.6705C245.03 121 252.863 136.903 258.03 143H207.53C185.53 140.34 178.03 123.047 177.03 114.733L172.53 77.0426Z" fill="url(#paint0_linear_1_98)"/>
<path fill-rule="evenodd" clip-rule="evenodd" d="M238.182 75.7688C238.151 75.4554 238.12 75.141 238.088 74.8256C247.734 65.0705 266.735 38.2442 275.03 26.0504C283.03 10.0876 293.363 2.0323 297.53 0C311.13 6.65116 319.196 54.5026 321.53 77.5969C309.93 102.428 289.363 124.525 280.53 132.469C274.13 139.564 262.863 142.446 258.03 143C252.863 136.903 245.03 121 239.53 93.6705C239.272 88.4628 238.831 82.3435 238.182 75.7688Z" fill="url(#paint1_linear_1_98)"/>
<path fill-rule="evenodd" clip-rule="evenodd" d="M321.53 77.5969C319.196 54.5026 311.13 6.65116 297.53 0L361.03 0.554264C364.53 0.554264 369.63 4.65581 374.03 21.062C377.696 38.2442 379.53 77.0426 385.53 96.4419C389.06 107.856 395.86 118.112 402.295 126.36C407.822 133.446 403.435 143 394.449 143H356.03C346.696 142.63 327.63 135.462 326.03 109.744L321.53 77.5969Z" fill="url(#paint2_linear_1_98)"/>
<path d="M126.53 24.3876C90.5298 89.569 62.3631 112.676 36.0298 124.5C26.8922 129.196 30.2316 143 40.5051 143H114.03C135.23 136.792 161.863 96.4419 172.53 77.0426C164.93 15.4085 152.363 0 147.03 0C138.63 5.32093 129.863 18.4755 126.53 24.3876Z" fill="url(#paint3_linear_1_98)"/>
<defs>
<linearGradient id="paint0_linear_1_98" x1="275.28" y1="0" x2="275.28" y2="143" gradientUnits="userSpaceOnUse">
<stop stop-color="#5BE49B"/>
<stop offset="1" stop-color="#C8FAD6"/>
</linearGradient>
<linearGradient id="paint1_linear_1_98" x1="281.53" y1="0" x2="281.53" y2="143" gradientUnits="userSpaceOnUse">
<stop offset="0.355769" stop-color="#007867"/>
<stop offset="0.668269" stop-color="#00A76F"/>
</linearGradient>
<linearGradient id="paint2_linear_1_98" x1="275.28" y1="0" x2="275.28" y2="143" gradientUnits="userSpaceOnUse">
<stop stop-color="#5BE49B"/>
<stop offset="1" stop-color="#C8FAD6"/>
</linearGradient>
<linearGradient id="paint3_linear_1_98" x1="86.2798" y1="0" x2="86.2798" y2="143" gradientUnits="userSpaceOnUse">
<stop offset="0.355769" stop-color="#007867"/>
<stop offset="0.668269" stop-color="#00A76F"/>
</linearGradient>
</defs>
</svg>
